<?xml version="1.0" encoding="UTF-8" standalone="no"?>
<svg width="101px" height="57px" viewBox="0 0 101 57" version="1.1" xmlns="http://www.w3.org/2000/svg" xmlns:xlink="http://www.w3.org/1999/xlink">
    <!-- Generator: Sketch 50.2 (55047) - http://www.bohemiancoding.com/sketch -->
    <title>send</title>
    <desc>Created with Sketch.</desc>
    <defs></defs>
    <g id="Page-1" stroke="none" stroke-width="1" fill="none" fill-rule="evenodd">
        <g id="Desktop-HD" transform="translate(-670.000000, -4131.000000)" fill="#4FBAB7" fill-rule="nonzero">
            <g id="CTA" transform="translate(0.000000, 4085.000000)">
                <g id="send" transform="translate(670.000000, 46.000000)">
                    <path d="M7.47681117,6 C7.82324074,6 8.17124499,5.8778217 8.45173483,5.62890324 C9.80143231,4.43131788 11.3422565,3.50784032 13.0311007,2.88465165 C13.7967888,2.60201515 14.1898682,1.74795709 13.9095752,0.97640905 C13.6292822,0.204861008 12.7813171,-0.191226765 12.0158259,0.0910130454 C9.98192999,0.84173524 8.12636661,1.95363712 6.50070649,3.39597577 C5.88874653,3.93883618 5.8294992,4.87877607 6.36843338,5.49541948 C6.66014283,5.8294264 7.06759124,6 7.47681117,6 Z" id="Shape"></path>
                    <path d="M100.759651,14.474044 C100.174136,12.8843965 98.6896716,11.9170399 96.9816073,12.0056035 L96.9814094,12.0056035 L38.1657826,15.1016137 C36.8034074,15.1731683 35.6339612,16.0423816 35.1865639,17.3160938 C34.7391666,18.5896105 35.1121626,19.9876636 36.1367637,20.8776003 L49.3044118,32.3185271 C49.4706275,32.4630049 49.5935084,32.6428691 49.667514,32.8403287 C49.6683055,32.8422838 49.6687012,32.8444343 49.6694927,32.8463894 C49.6700864,32.8481489 49.6710757,32.8495175 49.6716694,32.8510815 C49.743894,33.0497141 49.7668476,33.2659422 49.7334066,33.4825612 L47.0895875,50.609347 C46.8837966,51.9417106 47.5075012,53.2496361 48.6787284,53.9411357 C49.2114102,54.255507 49.8038504,54.4111286 50.394312,54.4111286 C51.1023117,54.4111286 51.8071455,54.1872759 52.4017624,53.7456311 L56.4293273,50.7524563 L57.5829435,53.8840484 C58.1645006,55.4615746 59.507484,56.5937415 61.1757752,56.9120229 C61.4854509,56.9710653 61.7951266,57 62.1014384,57 C63.4462027,57 64.7276467,56.44203 65.6509354,55.4238423 L97.7367015,20.0531576 L99.4712812,18.7641961 C100.839593,17.7475724 101.345363,16.0634961 100.759651,14.474044 Z M63.4412558,53.4670371 C63.0031587,53.9495424 62.3832137,54.1557997 61.738732,54.0332183 C61.0944483,53.910246 60.5963948,53.4904977 60.3720036,52.8813055 L58.9091074,48.9098259 L85.5057976,29.1437286 L63.4412558,53.4670371 Z M56.2462922,47.2191025 C56.2421368,47.2222305 56.2379814,47.2251631 56.2340239,47.2282912 L50.6179117,51.402118 C50.4845433,51.5012388 50.3446451,51.5088635 50.2011851,51.4240145 C50.0581209,51.339361 49.9983624,51.2142381 50.0234926,51.0513828 L52.6673118,33.924206 C52.6989719,33.7193172 52.7134169,33.514624 52.7149999,33.3114947 L62.468696,29.8039474 C63.2388288,29.5269175 63.6357677,28.6856614 63.3555756,27.9247576 C63.0753834,27.1638539 62.2243193,26.7718673 61.4535929,27.0485062 L51.6998968,30.555858 C51.5665285,30.4010184 51.4220791,30.2534124 51.2645699,30.1165592 L38.0967239,18.675437 C37.9716664,18.5667365 37.9358509,18.4328158 37.9904646,18.2773897 C38.0450783,18.1217681 38.1572739,18.0382876 38.3238854,18.0294899 L94.800224,15.0566476 L68.1995762,24.6224901 C67.4294435,24.8995201 67.0325045,25.7407762 67.3126967,26.50168 C67.5319431,27.0969913 68.1010341,27.466495 68.7073257,27.466495 C68.8759159,27.466495 69.0472764,27.4379513 69.2148772,27.3777359 L95.815327,17.8120889 L56.2462922,47.2191025 Z" id="Shape"></path>
                    <path d="M40.9985166,34.7541989 L32.305701,37.9264633 C27.7896792,39.5744418 22.9000697,39.3715862 18.5371772,37.3549056 C16.730411,36.5197346 15.1699227,35.3156634 13.936547,33.830761 L15.2160005,34.4221096 C18.0960617,35.7534355 21.3246856,35.8874191 24.3064357,34.7995198 C27.3755748,33.6795594 29.7894955,31.419848 31.1037059,28.4367834 C32.4173205,25.4555 32.4508858,22.1522206 31.1984434,19.1363033 C30.0802623,16.4433716 27.9988168,14.2624274 25.3374265,12.9950257 C22.674646,11.7272282 19.6642958,11.4847912 16.8606999,12.3120459 C13.5770607,13.2813984 10.8701885,15.6064194 9.4340308,18.6914065 C8.17523293,21.3958169 7.7019424,24.3266338 8.02567868,27.2152963 C6.17045133,25.6209509 4.74323115,23.5739903 3.87728626,21.2182936 C2.53805084,17.5746127 2.70309676,13.6293203 4.34183789,10.1091339 C4.68801723,9.36539632 4.36368512,8.48312326 3.61750279,8.13816993 C2.87092324,7.7932166 1.98591167,8.11640007 1.63953371,8.86013766 C-0.333867309,13.099719 -0.532677134,17.850892 1.08024453,22.2393 C2.5602953,26.2663283 5.4030176,29.5446714 9.1488251,31.5771847 C10.6962051,35.3352563 13.5645482,38.328612 17.2833446,40.0476394 C20.0944877,41.3467063 23.0923254,42 26.1012853,42 C28.5350671,42 30.9761975,41.5725191 33.3295418,40.7137971 L42.0223574,37.5415326 C42.794955,37.259514 43.1915816,36.4073229 42.9087592,35.6374615 C42.6265327,34.867798 41.7709156,34.4723782 40.9985166,34.7541989 Z M11.5389124,29.4504672 C10.5277828,26.3080869 10.7347356,22.9519661 12.1367322,19.9407986 C13.2128078,17.6284436 15.2432102,15.8856674 17.7069823,15.158554 C22.0114831,13.8881837 26.7279036,16.1342396 28.4460892,20.2715026 C29.3853217,22.5335889 29.3604953,25.0094158 28.3761781,27.243795 C27.3912651,29.4795597 25.5819169,31.172859 23.2821977,32.0121861 C21.0476229,32.8277642 18.6283397,32.727227 16.4696344,31.7293758 L11.5389124,29.4504672 Z" id="Shape"></path>
                </g>
            </g>
        </g>
    </g>
</svg>